<?xml-stylesheet type="text/css" href="http://www.intechrv.com/_2018_new_website/css/layout.css" ?>
<svg xmlns="http://www.w3.org/2000/svg" viewBox="0 0 200 100" class="flyer-logo"><title>inTech RV Flyer</title><g id="Layer_3" data-name="Layer 3"><path d="M75.6,42.26h8.05l3.44-5.06H11.87L10,40H65.57l-2.69,4H38.65l-.94,1.4H62l-3.16,4.71H47.08l-1.8,2.62H57l-6.84,10,11.65,0,6.57-9.9h8l1.73-2.62h-8ZM53.87,61.75l-1.66,0L68,38.4l1.63,0Z"/><path d="M171.2,44.68a3.51,3.51,0,0,0-3.29,1.76l-4.11,6.11H139l1.21-1.85,12.3,0,2-2.9c1.26-2.44-1.53-3.12-1.53-3.12H138.53s-1.66-.51-3.75,2.82l-3.42,5H120.06l5.35-7.87h-8l-5.32,7.87H108l5.26-7.85h-7.45l-5.26,7.85H91.16c-2.09,0-.34-2.09-.34-2.09l8.82-13.08H91.09l-9,13.43c-4.21,6.28,1,6.45,1,6.45h25.86l-3.73,5.52,7.95,0,3.75-5.54h52.66l4.83-7.32h12.15L190,44.68Zm-29.14,3.2c.27-.31,1-.26,1-.26l4.93,0c1.25,0,.81.44.81.44l-.82,1.16h-6.8ZM81.93,52.65,91.56,38.4l1.63,0-9.6,14.24Zm21.28,0-1.66,0,4.6-6.84,1.63,0Zm5.29,9.14-1.66,0,10.9-16,1.63,0Zm25.62-9.14-1.66,0,4.6-6.84,1.63,0Zm32.37,0-1.66,0,4.6-6.84,1.63,0Z"/></g></svg>