<?xml-stylesheet type="text/css" href="http://www.intechrv.com/_2018_new_website/css/layout.css" ?>
<svg xmlns="http://www.w3.org/2000/svg" viewBox="0 0 200 100" class="luna-logo"><title>inTech RV Luna</title><g id="Layer_3" data-name="Layer 3"><path d="M80.62,41.57a34.6,34.6,0,0,0,2-4.46c.57-1.3.32-2.51,1.19-3.69a6.73,6.73,0,0,1,1.36-1c.92-.32,1.36.35,1.49,1.33a7,7,0,0,1-1.14,3.66,114.45,114.45,0,0,1-6.37,10.51c-1.59,2.54-3.27,5.14-5.06,7.7-2.06,3-4.27,5.87-6.6,8.68-1.34,1.59-2.7,3.13-4.14,4.61,2.13-.27,4.59-.65,5.63-.77,0,0,6.84-.86,7.36-.89a65.83,65.83,0,0,1,13.37-.92c2.08.09,6.84-.18,9.62,1.12,1,.5,1.86.8,2.06,1.39a1.46,1.46,0,0,1-.27,1.18c-.17.32-.4,0-.77.41-.35.24-.84-.06-1.19-1.09a3.42,3.42,0,0,0-1.41-1.18A5.64,5.64,0,0,0,96,67.75l-1.61-.18a46,46,0,0,0-5.31-.21,85.46,85.46,0,0,0-10,.77c-4,.53-8,1.3-11.85,2.16l-5.11,1.56c-1.24.32-2,1.27-3.77,2.15l-.77.74-.74.21c-.74.06-1,.09-1.14-.12-.17,0-.15-.38-.3-.41-.47-.12,0-1.95.79-2.92a8,8,0,0,1,4.46-2.45,33.56,33.56,0,0,0,4.54-4.28,108.38,108.38,0,0,0,8-10.86c1.56-2.42,3-5,4.31-7.26Z"/><path d="M80.33,55.43a1,1,0,0,1,.1-.27,2.3,2.3,0,0,1,0-1.12A4.76,4.76,0,0,1,82,52.36a.07.07,0,0,0,0,0,1.56,1.56,0,0,1,.35-.32c.52-.27,1-.44,1.41-.21a1.11,1.11,0,0,1,.47,1.51c-.27.47-.3.32-.64.8-.17.24-.55.47-.77.71a11.26,11.26,0,0,0-1.24,1.54,5.78,5.78,0,0,0-.52,1.15,2.41,2.41,0,0,0-.3,1.06c-.07.44,0,.8.45.83a2.35,2.35,0,0,0,1,.09A9.52,9.52,0,0,0,85,58.26a42.45,42.45,0,0,0,5.36-3.63A19.6,19.6,0,0,0,92.18,53a7.56,7.56,0,0,1,.94-.89,1.61,1.61,0,0,1,2.16,2.24,6.45,6.45,0,0,0-.79,1.24,11.43,11.43,0,0,0-1.34,3.31.89.89,0,0,0,.77,1,2,2,0,0,0,.64.09,6.33,6.33,0,0,0,.87,0,8.51,8.51,0,0,0,2.43-.83c.72-.32,2.78-1.45,3.45-1.89.22-.12.52-.53.72-.59l.3.24a.63.63,0,0,1-.1.89c-.79.65-3,1.89-3.94,2.48-1.71,1.06-3.47,2.3-4.93,2.1-1.14-.18-2-1.59-1.88-3.37a16.92,16.92,0,0,1,.79-3.63c.07-.3-.25-.3-.4-.24a6.89,6.89,0,0,0-1.76,1.15,47.09,47.09,0,0,1-4.64,3.39,27.42,27.42,0,0,1-4,2.16,3.67,3.67,0,0,1-2.18,0,1.78,1.78,0,0,1-.89-2.13C78.54,58.29,79.76,56.55,80.33,55.43Z"/><path d="M103.93,52.71a2.61,2.61,0,0,1,1.31-1.12c.84-.38,1.56.18,1.49,1.24-.37,1.36-2.28,3.48-3.05,4.66-.25.35-.35.65-.25.68s.2.15.62-.09,1-.62,1.19-.74c.79-.56,2.88-2.1,4.91-3.51s3.55-2.16,4.54-2c1.64.24,1.59,1.62,1.31,3.42-.15,1-.25,2.07-.27,2.75A2.12,2.12,0,0,0,118,60.18a9.81,9.81,0,0,0,4.31-1.51v0a.36.36,0,0,1,.17,0c.69-.06.72.47.15.86-2,1.24-4.34,2.89-6.1,2.72a3,3,0,0,1-2.36-2.86,13.64,13.64,0,0,1,0-2.66,5.56,5.56,0,0,0,0-1.36,1.39,1.39,0,0,0-.42-.71,1.07,1.07,0,0,0-.89-.27,10.07,10.07,0,0,0-3.27,1.36c-1.29.83-2.55,2-3.6,2.75-.87.65-2.28,2.13-3.1,2.63a4.86,4.86,0,0,1-1.31.71.9.9,0,0,1-.6.12c-.67-.09-.94-.38-1.19-1.09a4.45,4.45,0,0,1,.94-2.42c.27-.44.6-1,.84-1.42.47-.83,1-1.59,1.36-2.16.72-1.27.55-1.33.89-1.92,0-.06,0-.12.07-.15Z"/><path d="M134.59,53.81a2.1,2.1,0,0,0-2.08-.59,9.15,9.15,0,0,0-1.76.74c-1.14.77-2.8,2.13-3.67,2.72-1.54,1.06-2.63,2.57-2.55,3.1.3.3.87.15,1.17,0,1.36-.68,2.8-1.3,4-1.95.77-.38,1.59-.74,2.41-1.21,1.36-.65,4.56-2.6,5.33-2.6a1.16,1.16,0,0,1,1,.94c0,1.56-1.88,3.69-1.88,4.75,0,.41.27.68,1,.68a8.63,8.63,0,0,0,1-.12,18.34,18.34,0,0,0,5.68-2.54c.62-.12.69.41.2.83-1.49,1.18-6.57,5.34-9,3.45a2.27,2.27,0,0,1-.62-2.07,10.94,10.94,0,0,1,.79-3c.17-.71-.74-.56-1-.38s-1.14.44-2.06.94c-.45.24-.89.71-1.34.94-1.36.71-3.17,1.89-4.61,2.6a9.89,9.89,0,0,1-3.32,1.15,7,7,0,0,1-1.09-.18,1.38,1.38,0,0,1-.74-1.09,3.58,3.58,0,0,1,.2-1.15,9.69,9.69,0,0,1,1.56-2.45,24,24,0,0,1,2.93-2.66,26.16,26.16,0,0,1,4.12-2.42c1.29-.59,2.06-.65,2.53-.92a7.55,7.55,0,0,1,1.91-.24,1.21,1.21,0,0,1,1.26.53l.4.5C136.67,53.57,135.55,54.87,134.59,53.81Z"/><path d="M106.24,25A14.16,14.16,0,0,1,112,36.22a14.16,14.16,0,0,1-5.76,11.22c5.92-1,10.41-5.62,10.41-11.22S112.16,26,106.24,25Z"/></g></svg>