<?xml-stylesheet type="text/css" href="http://www.intechrv.com/css/layout.css" ?>
<svg xmlns="http://www.w3.org/2000/svg" viewBox="0 0 100 75" class="chase"><title>Interior-Width</title><g id="Layer_1" data-name="Layer 1"><rect class="cls-1" x="50.81" y="28.74" width="14.41" height="27.52"/><rect class="cls-1" x="34.78" y="28.74" width="14.41" height="27.52"/><path class="cls-1" d="M71.69,47.28H68.45V25.81H31.55V47.28H28.31a2.2,2.2,0,0,0-2.2,2.2v15.9A2.19,2.19,0,0,0,26.84,67v1.1a1.9,1.9,0,0,0,1.9,1.9h5.47a1.9,1.9,0,0,0,1.9-1.9V67a2.19,2.19,0,0,0,.74-1.63V59.19H63.16v6.18A2.19,2.19,0,0,0,63.89,67v1.1a1.9,1.9,0,0,0,1.9,1.9h5.47a1.9,1.9,0,0,0,1.9-1.9V67a2.19,2.19,0,0,0,.74-1.63V49.47A2.2,2.2,0,0,0,71.69,47.28ZM66.83,57.72H33.17V27.28H66.83Z"/></g><g id="Layer_5" data-name="Layer 5"><polygon class="cls-1" points="47 16.91 47 19.91 38 19.91 38 22.91 33 18.41 38 13.91 38 16.91 47 16.91"/><polygon class="cls-1" points="53 19.91 53 16.91 62 16.91 62 13.91 67 18.41 62 22.91 62 19.91 53 19.91"/></g></svg>