<?xml-stylesheet type="text/css" href="http://www.intechrv.com/css/layout.css" ?>
<svg xmlns="http://www.w3.org/2000/svg" viewBox="0 0 100 75" class="chase"><title>Interior-Height</title><g id="Layer_1" data-name="Layer 1"><path class="cls-1" d="M95.44,39A14.17,14.17,0,0,0,84,25.81H13.5V57.21H32a13,13,0,0,1,12.31-8.44,10.62,10.62,0,0,1,10.1,8.44H95.44ZM43.23,40a1.66,1.66,0,0,1-1.66,1.66H31.06A1.66,1.66,0,0,1,29.4,40V36.53H43.23Zm0-4.43H29.4V32.11a1.66,1.66,0,0,1,1.66-1.66H41.58a1.66,1.66,0,0,1,1.66,1.66ZM76.41,56H56.25V29.55A1.73,1.73,0,0,1,58,27.82h16.7a1.73,1.73,0,0,1,1.73,1.73Z"/><path class="cls-1" d="M53.21,59h-.08a.4.4,0,0,1-.39-.35h0A.4.4,0,0,1,53,58.2l.07,0a.4.4,0,0,0,.28-.49l-.24-.91a.4.4,0,0,0-.49-.28l-.07,0a.4.4,0,0,1-.47-.23h0a.4.4,0,0,1,.17-.5l.06,0a.4.4,0,0,0,.14-.54L52,54.38a.4.4,0,0,0-.54-.14l-.07,0a.4.4,0,0,1-.51-.1h0a.4.4,0,0,1,0-.52l.05-.05A.4.4,0,0,0,51,53l-.67-.67a.4.4,0,0,0-.56,0l-.05.05a.4.4,0,0,1-.52,0h0a.4.4,0,0,1-.1-.51l0-.07a.4.4,0,0,0-.14-.54l-.82-.47a.4.4,0,0,0-.54.14l0,.06a.4.4,0,0,1-.5.17h0a.4.4,0,0,1-.23-.47l0-.07a.4.4,0,0,0-.28-.49l-.91-.24a.4.4,0,0,0-.49.28l0,.07a.4.4,0,0,1-.44.29h0a.4.4,0,0,1-.35-.39v-.08a.4.4,0,0,0-.4-.4H43a.4.4,0,0,0-.4.4v.08a.4.4,0,0,1-.35.39h0a.4.4,0,0,1-.44-.29l0-.07a.4.4,0,0,0-.49-.28l-.91.24a.4.4,0,0,0-.28.49l0,.07a.4.4,0,0,1-.23.47h0a.4.4,0,0,1-.5-.17l0-.06a.4.4,0,0,0-.54-.14l-.82.47a.4.4,0,0,0-.14.54l0,.07a.4.4,0,0,1-.1.51h0a.4.4,0,0,1-.52,0l-.05-.05a.4.4,0,0,0-.56,0L36,53a.4.4,0,0,0,0,.56l.05.05a.4.4,0,0,1,0,.52h0a.4.4,0,0,1-.51.1l-.07,0a.4.4,0,0,0-.54.14l-.47.82a.4.4,0,0,0,.14.54l.06,0a.4.4,0,0,1,.17.5h0a.4.4,0,0,1-.47.23l-.07,0a.4.4,0,0,0-.49.28l-.24.91a.4.4,0,0,0,.28.49l.07,0a.4.4,0,0,1,.29.44h0a.4.4,0,0,1-.39.35h-.08a.4.4,0,0,0-.4.4v.95a.4.4,0,0,0,.4.4h.08a.4.4,0,0,1,.39.35h0a.4.4,0,0,1-.29.44l-.07,0a.4.4,0,0,0-.28.49l.24.91a.4.4,0,0,0,.49.28l.07,0a.4.4,0,0,1,.47.23h0a.4.4,0,0,1-.17.5l-.06,0a.4.4,0,0,0-.14.54l.47.82a.4.4,0,0,0,.54.14l.07,0a.4.4,0,0,1,.51.1h0a.4.4,0,0,1,0,.52l-.05.05a.4.4,0,0,0,0,.56l.67.67a.4.4,0,0,0,.56,0l.05-.05a.4.4,0,0,1,.52,0h0a.4.4,0,0,1,.1.51l0,.07a.4.4,0,0,0,.14.54l.82.47a.4.4,0,0,0,.54-.14l0-.06a.4.4,0,0,1,.5-.17h0a.4.4,0,0,1,.23.47l0,.07a.4.4,0,0,0,.28.49l.91.24a.4.4,0,0,0,.49-.28l0-.07a.4.4,0,0,1,.44-.29h0a.4.4,0,0,1,.35.39v.08a.4.4,0,0,0,.4.4h.95a.4.4,0,0,0,.4-.4v-.08a.4.4,0,0,1,.35-.39h0a.4.4,0,0,1,.44.29l0,.07a.4.4,0,0,0,.49.28l.91-.24a.4.4,0,0,0,.28-.49l0-.07a.4.4,0,0,1,.23-.47h0a.4.4,0,0,1,.5.17l0,.06a.4.4,0,0,0,.54.14l.82-.47a.4.4,0,0,0,.14-.54l0-.07a.4.4,0,0,1,.1-.51h0a.4.4,0,0,1,.52,0l.05.05a.4.4,0,0,0,.56,0L51,66.7a.4.4,0,0,0,0-.56l-.05-.05a.4.4,0,0,1,0-.52h0a.4.4,0,0,1,.51-.1l.07,0a.4.4,0,0,0,.54-.14l.47-.82a.4.4,0,0,0-.14-.54l-.06,0a.4.4,0,0,1-.17-.5h0a.4.4,0,0,1,.47-.23l.07,0a.4.4,0,0,0,.49-.28l.24-.91a.4.4,0,0,0-.28-.49l-.07,0a.4.4,0,0,1-.29-.44h0a.4.4,0,0,1,.39-.35h.08a.4.4,0,0,0,.4-.4v-.95A.4.4,0,0,0,53.21,59ZM39.54,54.61a16.81,16.81,0,0,1,1.94,4.05,16.82,16.82,0,0,1-4.49.12A6.51,6.51,0,0,1,39.54,54.61Zm2.15,11.62a6.58,6.58,0,0,1-4.54-4.54A16.8,16.8,0,0,1,42,61.35,16.81,16.81,0,0,1,41.68,66.23Zm.52-12.82a6.6,6.6,0,0,1,4.8.89,16.81,16.81,0,0,1-3.09,3.27A16.78,16.78,0,0,1,42.2,53.41Zm1.29,7.71a1.24,1.24,0,1,1,1.24-1.24A1.24,1.24,0,0,1,43.49,61.12Zm1.11,5.26a16.82,16.82,0,0,1,.12-4.49,16.77,16.77,0,0,1,4,1.94A6.51,6.51,0,0,1,44.6,66.38ZM50,61.17a16.78,16.78,0,0,1-4.16-1.71,16.79,16.79,0,0,1,3.27-3.09A6.6,6.6,0,0,1,50,61.17Z"/><path class="cls-1" d="M74.35,28.37h-16A1.66,1.66,0,0,0,56.65,30V55.48H76V30A1.66,1.66,0,0,0,74.35,28.37ZM70.2,44.83a1.66,1.66,0,0,1-1.66,1.66H64a1.66,1.66,0,0,1-1.66-1.66V33.49A1.66,1.66,0,0,1,64,31.83h4.56a1.66,1.66,0,0,1,1.66,1.66Z"/></g><g id="Layer_5" data-name="Layer 5"><polygon class="cls-1" points="9 39.91 6 39.91 6 30.91 3 30.91 7.5 25.91 12 30.91 9 30.91 9 39.91"/><polygon class="cls-1" points="6 42.91 9 42.91 9 51.91 12 51.91 7.5 56.91 3 51.91 6 51.91 6 42.91"/></g></svg>