<?xml-stylesheet type="text/css" href="http://www.intechrv.com/css/layout.css" ?>
<svg xmlns="http://www.w3.org/2000/svg" viewBox="0 0 100 75" class="chase"><title>Interior-Length</title><g id="Layer_1" data-name="Layer 1"><path class="cls-1" d="M3.11,54.16l1.52.14v.83l11.2.14L16,56.93l.14.14v1.38l.28.69c-.83,2.07,1.38,2.07,1.38,2.07A1.43,1.43,0,0,0,19,59.42c-.28-1.24-2.07-1-2.07-1V57.21H56.63a10.62,10.62,0,0,1,10.1-8.44A13,13,0,0,1,79,57.21H97.5V25.81H27A14.17,14.17,0,0,0,15.56,39l.28,14s-11.62-.28-12.45-.28-.83.55-.83.55C2.28,54.16,3.11,54.16,3.11,54.16Z"/><path class="cls-1" d="M57.4,59.39v.95a.4.4,0,0,0,.4.4h.08a.4.4,0,0,1,.39.35h0a.4.4,0,0,1-.29.44l-.07,0a.4.4,0,0,0-.28.49l.24.91a.4.4,0,0,0,.49.28l.07,0a.4.4,0,0,1,.47.23h0a.4.4,0,0,1-.17.5l-.06,0a.4.4,0,0,0-.14.54l.47.82a.4.4,0,0,0,.54.14l.07,0a.4.4,0,0,1,.51.1h0a.4.4,0,0,1,0,.52l-.05.05a.4.4,0,0,0,0,.56l.67.67a.4.4,0,0,0,.56,0l.05-.05a.4.4,0,0,1,.52,0h0a.4.4,0,0,1,.1.51l0,.07a.4.4,0,0,0,.14.54l.82.47a.4.4,0,0,0,.54-.14l0-.06a.4.4,0,0,1,.5-.17h0a.4.4,0,0,1,.23.47l0,.07a.4.4,0,0,0,.28.49l.91.24a.4.4,0,0,0,.49-.28l0-.07a.4.4,0,0,1,.44-.29h0a.4.4,0,0,1,.35.39v.08a.4.4,0,0,0,.4.4H68a.4.4,0,0,0,.4-.4v-.08a.4.4,0,0,1,.35-.39h0a.4.4,0,0,1,.44.29l0,.07a.4.4,0,0,0,.49.28l.91-.24A.4.4,0,0,0,70.9,69l0-.07a.4.4,0,0,1,.23-.47h0a.4.4,0,0,1,.5.17l0,.06a.4.4,0,0,0,.54.14l.82-.47a.4.4,0,0,0,.14-.54l0-.07a.4.4,0,0,1,.1-.51h0a.4.4,0,0,1,.52,0l.05.05a.4.4,0,0,0,.56,0L75,66.7a.4.4,0,0,0,0-.56L75,66.08a.4.4,0,0,1,0-.52h0a.4.4,0,0,1,.51-.1l.07,0a.4.4,0,0,0,.54-.14l.47-.82a.4.4,0,0,0-.14-.54l-.06,0a.4.4,0,0,1-.17-.5h0a.4.4,0,0,1,.47-.23l.07,0a.4.4,0,0,0,.49-.28l.24-.91a.4.4,0,0,0-.28-.49l-.07,0a.4.4,0,0,1-.29-.44h0a.4.4,0,0,1,.39-.35h.08a.4.4,0,0,0,.4-.4v-.95a.4.4,0,0,0-.4-.4H77.2a.4.4,0,0,1-.39-.35h0a.4.4,0,0,1,.29-.44l.07,0a.4.4,0,0,0,.28-.49l-.24-.91a.4.4,0,0,0-.49-.28l-.07,0a.4.4,0,0,1-.47-.23h0a.4.4,0,0,1,.17-.5l.06,0a.4.4,0,0,0,.14-.54l-.47-.82a.4.4,0,0,0-.54-.14l-.07,0a.4.4,0,0,1-.51-.1h0a.4.4,0,0,1,0-.52l.05-.05A.4.4,0,0,0,75,53l-.67-.67a.4.4,0,0,0-.56,0l-.05.05a.4.4,0,0,1-.52,0h0a.4.4,0,0,1-.1-.51l0-.07a.4.4,0,0,0-.14-.54l-.82-.47a.4.4,0,0,0-.54.14l0,.06a.4.4,0,0,1-.5.17h0a.4.4,0,0,1-.23-.47l0-.07a.4.4,0,0,0-.28-.49l-.91-.24a.4.4,0,0,0-.49.28l0,.07a.4.4,0,0,1-.44.29h0a.4.4,0,0,1-.35-.39v-.08a.4.4,0,0,0-.4-.4h-.95a.4.4,0,0,0-.4.4v.08a.4.4,0,0,1-.35.39h0a.4.4,0,0,1-.44-.29l0-.07a.4.4,0,0,0-.49-.28l-.91.24a.4.4,0,0,0-.28.49l0,.07a.4.4,0,0,1-.23.47h0a.4.4,0,0,1-.5-.17l0-.06a.4.4,0,0,0-.54-.14l-.82.47a.4.4,0,0,0-.14.54l0,.07a.4.4,0,0,1-.1.51h0a.4.4,0,0,1-.52,0l-.05-.05a.4.4,0,0,0-.56,0L60,53a.4.4,0,0,0,0,.56l.05.05a.4.4,0,0,1,0,.52h0a.4.4,0,0,1-.51.1l-.07,0a.4.4,0,0,0-.54.14l-.47.82a.4.4,0,0,0,.14.54l.06,0a.4.4,0,0,1,.17.5h0a.4.4,0,0,1-.47.23l-.07,0a.4.4,0,0,0-.49.28l-.24.91a.4.4,0,0,0,.28.49l.07,0a.4.4,0,0,1,.29.44h0a.4.4,0,0,1-.39.35h-.08A.4.4,0,0,0,57.4,59.39ZM74,58.77a16.82,16.82,0,0,1-4.49-.12,16.81,16.81,0,0,1,1.94-4.05A6.51,6.51,0,0,1,74,58.77Zm-5,2.58a16.8,16.8,0,0,1,4.88.34,6.58,6.58,0,0,1-4.54,4.54A16.81,16.81,0,0,1,69,61.35Zm-1.89-3.78A16.81,16.81,0,0,1,64,54.3a6.6,6.6,0,0,1,4.8-.89A16.78,16.78,0,0,1,67.08,57.57Zm-.81,2.31a1.24,1.24,0,1,1,1.24,1.24A1.24,1.24,0,0,1,66.27,59.88Zm-4,4a16.77,16.77,0,0,1,4-1.94,16.82,16.82,0,0,1,.12,4.49A6.51,6.51,0,0,1,62.24,63.83Zm-.3-7.47a16.79,16.79,0,0,1,3.27,3.09A16.78,16.78,0,0,1,61,61.17,6.6,6.6,0,0,1,61.93,56.37Z"/></g><g id="Layer_5" data-name="Layer 5"><polygon class="cls-1" points="44 16.91 44 19.91 35 19.91 35 22.91 30 18.41 35 13.91 35 16.91 44 16.91"/><polygon class="cls-1" points="82 19.91 82 16.91 91 16.91 91 13.91 96 18.41 91 22.91 91 19.91 82 19.91"/></g></svg>