<?xml-stylesheet type="text/css" href="http://www.intechrv.com/css/layout.css" ?>
<svg xmlns="http://www.w3.org/2000/svg" viewBox="0 0 100 75" class="chase"><title>Lightweight</title><g id="Layer_6" data-name="Layer 6"><path class="cls-1" d="M73.32,41c9.28-8.13,7.86-25.12,6.14-26.84-1-1-3.21,3.64-9.2,7.32-.52.51-1.18,3.29-1.15,7.29a17.39,17.39,0,0,1-1-6,47.29,47.29,0,0,1-4.55,2.13A15.68,15.68,0,0,0,53.9,37.41c-.07-3-1.9-5.3-.31-9.22-5.39,1.58-10.88,3.08-15,5.07A13.43,13.43,0,0,0,31.32,42a28,28,0,0,0-.79,7.22c-.42-.29-2-4.59-1.56-9.21-5.71,6-5.59,15.29-3.55,21.14h0c-2.33-1.79-6.14-.74-6.14-.74a6.7,6.7,0,0,1,4.33,2.63C19.47,64.45,19.28,70,19.28,70c2.34-4.87,8.66-4.34,8.66-4.34l.15.13A22.08,22.08,0,0,1,43.31,42.64c6.26-2,20.29-6.25,25.81-9.92C65.9,37.88,48.6,44.3,44.42,45.82a21.36,21.36,0,0,0-14,20.93c3.32,0,7.47-5.38,15.74-9.55-1-1.08-5-2.9-9.39-1.75A18.27,18.27,0,0,1,48.8,53a14.33,14.33,0,0,0,8.31-1.2h0a61.22,61.22,0,0,0,14.37-9.06A5.54,5.54,0,0,0,65.06,41a7.48,7.48,0,0,1,8.27,0Zm0,0"/></g></svg>