<?xml-stylesheet type="text/css" href="http://www.intechrv.com/css/layout.css" ?>
<svg xmlns="http://www.w3.org/2000/svg" viewBox="0 0 100 75" class="chase"><title>Power</title><g id="Layer_6" data-name="Layer 6"><path d="M78.53,58.46A7.23,7.23,0,1,0,68.3,48.23l-3.84,3.84a2.74,2.74,0,0,1-3.86,0L53.74,45.2a2.26,2.26,0,0,0-1.59-.66,2.21,2.21,0,0,0-1.59.66,9.93,9.93,0,0,1-14.06,0L30.3,39l14-14,6.2,6.2a9.89,9.89,0,0,1,2.89,6.44,2.26,2.26,0,0,0,2.25,2.13h.14a2.25,2.25,0,0,0,2.11-2.38A14.39,14.39,0,0,0,53.74,28l-6.2-6.2.69-.69A2.26,2.26,0,0,0,45,17.9l-4.42,4.42L33,14.66a2.25,2.25,0,0,0-3.19,3.19l7.65,7.65-6.58,6.58L23.2,24.42A2.26,2.26,0,0,0,20,27.61l7.67,7.65-4.41,4.41a2.25,2.25,0,1,0,3.18,3.19l.69-.69,6.2,6.2A14.43,14.43,0,0,0,52,49.85l5.39,5.39a7.25,7.25,0,0,0,10.23,0l3.84-3.84a2.73,2.73,0,0,1,3.86,3.86l-3.84,3.84a7.25,7.25,0,0,0,0,10.23,2.25,2.25,0,0,0,3.18-3.19,2.72,2.72,0,0,1,0-3.85Zm0,0"/></g></svg>