<?xml-stylesheet type="text/css" href="http://www.intechrv.com/css/layout.css" ?>
<svg xmlns="http://www.w3.org/2000/svg" viewBox="0 0 100 75" class="chase"><title>Solar-Prep</title><g id="Layer_6" data-name="Layer 6"><path class="cls-1" d="M50,27.8A14.2,14.2,0,1,0,64.2,42,14.22,14.22,0,0,0,50,27.8Z"/><path class="cls-1" d="M71.16,42l5.2-7a1.84,1.84,0,0,0-.93-2.85l-8.31-2.6.1-8.71a1.84,1.84,0,0,0-2.42-1.76l-8.25,2.79-5-7.1a1.84,1.84,0,0,0-3,0l-5,7.11-8.25-2.79a1.84,1.84,0,0,0-2.42,1.76l.1,8.71-8.31,2.6A1.84,1.84,0,0,0,23.64,35l5.2,7-5.2,7a1.84,1.84,0,0,0,.93,2.85l8.31,2.6-.1,8.71a1.84,1.84,0,0,0,2.42,1.76l8.25-2.79,5,7.11a1.84,1.84,0,0,0,3,0l5-7.11,8.25,2.79a1.84,1.84,0,0,0,2.42-1.76l-.1-8.71,8.31-2.6A1.84,1.84,0,0,0,76.36,49ZM50,59.87A17.87,17.87,0,1,1,67.87,42,17.89,17.89,0,0,1,50,59.87Z"/></g></svg>