<?xml-stylesheet type="text/css" href="http://www.intechrv.com/css/layout.css" ?>
<svg xmlns="http://www.w3.org/2000/svg" viewBox="0 0 100 75" class="chase"><title>Tongue-Weight</title><g id="Layer_6" data-name="Layer 6"><path class="cls-1" d="M42.67,24.28H41V21.66a7.66,7.66,0,0,0-15.31,0v2.63H24.08V39.59H42.67ZM35,34.23H31.73v-4.7H35Zm2.73-10H29V21.66a4.38,4.38,0,0,1,8.75,0Z"/><circle class="cls-1" cx="69.8" cy="43.86" r="8.2"/><path class="cls-1" d="M64.56,54.08a11.48,11.48,0,0,1-21.89-4.86V41.56H22v9.3H33.44a20.78,20.78,0,0,0,40.84,3.58,11.48,11.48,0,0,1-9.71-.36Z"/></g></svg>